<?xml version="1.0" encoding="utf-8"?>
<!-- Generator: Adobe Illustrator 19.0.0, SVG Export Plug-In . SVG Version: 6.00 Build 0)  -->
<svg version="1.1" id="Layer_1" xmlns="http://www.w3.org/2000/svg" xmlns:xlink="http://www.w3.org/1999/xlink" x="0px" y="0px"
	 viewBox="0 0 500 500" style="enable-background:new 0 0 500 500;" xml:space="preserve">
<style type="text/css">
	.st0{fill:#FFFFFF;}
	.st1{fill:#00ADEE;}
</style>
<path id="XMLID_4_" class="st0" d="M413.2,280.7c0.1-0.6,0.2-1.2,0.3-1.8c-0.3-0.6-0.6-1.1-0.9-1.7L413.2,280.7z"/>
<g id="XMLID_1_">
	<path id="XMLID_3_" class="st1" d="M412.6,279.1L412.6,279.1c1.8-9.8,2.7-19.9,2.7-30c0-22.3-4.4-44-13-64.3
		c-8.3-19.7-20.2-37.4-35.4-52.5c-15.2-15.2-32.9-27.1-52.5-35.4c-20.4-8.6-42-13-64.3-13c-10.5,0-21,1-31.3,3c0,0,0,0-0.1,0l0,0
		c-14.1-7.5-29.9-11.5-45.9-11.5c-26.1,0-50.7,10.2-69.2,28.7C85.2,122.6,75,147.1,75,173.3c0,16.6,4.3,33,12.3,47.4l0,0
		c-1.6,9.4-2.5,18.9-2.5,28.5c0,22.3,4.4,44,13,64.3c8.3,19.7,20.2,37.4,35.4,52.5c15.2,15.2,32.8,27.1,52.5,35.4
		c20.4,8.6,42,13,64.3,13c9.7,0,19.4-0.9,28.9-2.6l0,0c14.6,8.3,31.2,12.7,48.1,12.7c26.1,0,50.7-10.2,69.2-28.7
		c18.5-18.5,28.7-43,28.7-69.2C425,310.1,420.7,293.7,412.6,279.1z"/>
	<path id="XMLID_2_" class="st0" d="M279,411.9"/>
	<path id="XMLID_5_" class="st0" d="M250.8,350.4c-58.7,0-85-28.9-85-50.5c0-11.1,8.2-18.9,19.5-18.9c25.1,0,18.6,36.1,65.5,36.1
		c24,0,37.3-13,37.3-26.4c0-8-4-16.9-19.8-20.8l-52.2-13c-42.1-10.5-49.7-33.3-49.7-54.7c0-44.4,41.8-61,81-61
		c36.1,0,78.8,20,78.8,46.6c0,11.4-9.9,18-21.2,18c-21.4,0-17.5-29.7-60.7-29.7c-21.4,0-33.3,9.7-33.3,23.6
		c0,13.9,16.9,18.3,31.6,21.6l38.7,8.6c42.3,9.4,53.1,34.2,53.1,57.4C334.3,323.5,306.6,350.4,250.8,350.4z"/>
</g>
</svg>
